inDegrees=yes
name=ik_lifting_orientations
DataType=double
version=3
OpenSimVersion=4.5-2024-01-10-34fd6af
endheader
time	pelvis_tilt	pelvis_list	pelvis_rotation	pelvis_tx	pelvis_ty	pelvis_tz	hip_flexion_r	hip_adduction_r	hip_rotation_r	knee_angle_r	knee_angle_r_beta	ankle_angle_r	subtalar_angle_r	mtp_angle_r	hip_flexion_l	hip_adduction_l	hip_rotation_l	knee_angle_l	knee_angle_l_beta	ankle_angle_l	subtalar_angle_l	mtp_angle_l	lumbar_extension	lumbar_bending	lumbar_rotation	arm_flex_r	arm_add_r	arm_rot_r	elbow_flex_r	pro_sup_r	wrist_flex_r	wrist_dev_r	arm_flex_l	arm_add_l	arm_rot_l	elbow_flex_l	pro_sup_l	wrist_flex_l	wrist_dev_l
1.7	0.05148224857465337	0.3786277822382752	-102.3889827233099	0	0.9399999998679526	0	44.33139625550498	-12.75090132994576	0	59.64460628017115	1.040994760644674	-6.358133348962166	0	0	44.33139625550498	-12.75090132994576	0	59.64460628017115	1.040994760644674	-6.358133348962166	0	0	0.9380795920198434	0.2444706259432013	-3.359346103682117	63.4770607155575	4.044867289419439	23.9458335357946	75.16333100486922	3.73725288970488	0	0	0	-8.782282661819353	0	86.32877445152651	3.73725288970488	0	0
1.71	0.05600728897585774	0.4985594012149646	-102.1916152994451	0	0.9399999998679526	0	44.33158691080961	-12.74814694762195	0	59.6446858283944	1.040996149023084	-6.356365077754198	0	0	44.33158691080961	-12.74814694762195	0	59.6446858283944	1.040996149023084	-6.356365077754198	0	0	0.997115752559476	0.2240602657974442	-3.313434932406942	63.95966010826388	3.345517794684959	24.13947620815005	74.42367843231202	3.736510317451354	0	0	0	-8.783193233281407	0	86.32950382810117	3.736510317451354	0	0
1.72	0.05548603104398231	0.07635363082710968	-101.5031450366516	0	0.9399999998679526	0	44.33171537698487	-12.74630771644401	0	59.64473979052714	1.040997090839971	-6.355186483160622	0	0	44.33171537698487	-12.74630771644401	0	59.64473979052714	1.040997090839971	-6.355186483160622	0	0	0.716973369475436	0.1367223891088852	-3.622957873821071	64.14828355806011	2.565826037002402	24.32649944282976	74.20704361028686	3.736008645017577	0	0	0	-8.783809766114482	0	86.32999658612609	3.736008645017577	0	0
1.73	0.03081317969860372	-0.3270343675376348	-101.1860371774028	0	0.9399999998679526	0	44.33190907400863	-12.74351180255195	0	59.64482059718583	1.040998501182223	-6.353392292902517	0	0	44.33190907400863	-12.74351180255195	0	59.64482059718583	1.040998501182223	-6.353392292902517	0	0	0.2386347780320396	0.05766492886210633	-3.823606306524236	64.55801552519611	2.610188658973772	24.97861914593997	73.79018484596391	3.73525418728576	0	0	0	-8.784734922349289	0	86.33073763699299	3.73525418728576	0	0
1.74	0.02540259361555112	-0.762859159928223	-100.8756712321379	0	0.9399999998679526	0	44.33217397086364	-12.73968549737638	0	59.644930970986	1.041000427568444	-6.350937073930647	0	0	44.33217397086364	-12.73968549737638	0	59.644930970986	1.041000427568444	-6.350937073930647	0	0	-0.5940805437574375	-0.2026134117375889	-3.64359675578566	65.28421930361115	2.40886740831537	25.32114454258793	73.12926082900412	3.734222807166915	0	0	0	-8.785999198299912	0	86.3317506891597	3.734222807166915	0	0
1.75	0.01962974731283734	-1.139371319797513	-100.6852611104903	0	0.9399999998679526	0	44.33238988849531	-12.73657821246274	0	59.64502114760737	1.041002001447395	-6.348944989074867	0	0	44.33238988849531	-12.73657821246274	0	59.64502114760737	1.041002001447395	-6.348944989074867	0	0	-1.017222903238397	-0.328038728932749	-3.453472775561691	65.65845101704156	2.130457607850654	25.47175689709992	72.60406802957461	3.733381312208673	0	0	0	-8.787031537506365	0	86.33257723075431	3.733381312208673	0	0
1.76	0.02706698159712322	-1.295460411933539	-100.7559389448361	0	0.9399999998679526	0	44.33253250115168	-12.73452747110522	0	59.64508071552186	1.041003041103632	-6.347630656056125	0	0	44.33253250115168	-12.73452747110522	0	59.64508071552186	1.041003041103632	-6.347630656056125	0	0	-1.046576490650805	-0.326087657077037	-3.21826381966286	65.87850484405175	1.976511183962284	24.81718985324515	72.11608711694203	3.732825450951436	0	0	0	-8.787713508913651	0	86.33312321438007	3.732825450951436	0	0
1.77	0.01241799551320715	-1.441171993096523	-100.8712350865485	0	0.9399999998679526	0	44.33271230892392	-12.73193740466936	0	59.64515568400815	1.041004349550553	-6.345970350507705	0	0	44.33271230892392	-12.73193740466936	0	59.64515568400815	1.041004349550553	-6.345970350507705	0	0	-1.011156543707299	-0.308620606674527	-2.960900720714665	66.22983638376864	1.677818126143815	23.7832655156779	71.96090802884493	3.732125061475476	0	0	0	-8.788572317130331	0	86.33381115782528	3.732125061475476	0	0
1.78	0.006239302198418253	-1.56270804114136	-101.0136055631439	0	0.9399999998679526	0	44.33289245205235	-12.72934442858806	0	59.64523080190462	1.041005660605173	-6.34430864900976	0	0	44.33289245205235	-12.72934442858806	0	59.64523080190462	1.041005660605173	-6.34430864900976	0	0	-1.009527487339654	-0.2757428915083278	-2.936098078970646	66.45996198315089	1.384405908952984	23.25148794629056	71.30530502182081	3.731423291475943	0	0	0	-8.789432879905315	0	86.33450045729052	3.731423291475943	0	0
1.79	-0.0148809011950501	-1.8194443647226	-101.1316549899521	0	0.9399999998679526	0	44.33307402265656	-12.72673247641162	0	59.64530651258099	1.041006982005755	-6.342635239759477	0	0	44.33307402265656	-12.72673247641162	0	59.64530651258099	1.041006982005755	-6.342635239759477	0	0	-1.399471823076017	-0.313368819738674	-3.063275343428454	66.71658251280518	1.353571713532977	22.96274381042407	70.63624846670912	3.730715926287612	0	0	0	-8.79030032123085	0	86.33519525253298	3.730715926287612	0	0
1.8	-0.03884092963162464	-2.127004334710276	-101.4022343574837	0	0.9399999998679526	0	44.33326143968878	-12.72403944875866	0	59.64538468941123	1.041008346448841	-6.340910534493453	0	0	44.33326143968878	-12.72403944875866	0	59.64538468941123	1.041008346448841	-6.340910534493453	0	0	-2.006549071743227	-0.3937389430001388	-3.047420356415117	66.9473303341602	1.641935620772586	22.82161675097991	69.63157455991495	3.729985637154269	0	0	0	-8.791196007916003	0	86.33591256441173	3.729985637154269	0	0
1.81	-0.05459695232642044	-2.445154341092582	-101.5808622369085	0	0.9399999998679526	0	44.33344706586408	-12.72137165916734	0	59.64546206693721	1.041009696941437	-6.339202210539601	0	0	44.33344706586408	-12.72137165916734	0	59.64546206693721	1.041009696941437	-6.339202210539601	0	0	-2.699451345153353	-0.5092258247336696	-3.00702579759677	67.18023765082614	1.769203804641905	22.96289609407122	68.82609973742997	3.729262468418813	0	0	0	-8.792082793382864	0	86.33662288238126	3.729262468418813	0	0
1.82	-0.07821726260175028	-2.813689177565466	-101.6316256077417	0	0.9399999998679526	0	44.33365304856616	-12.71841737801181	0	59.64554802579791	1.041011197206577	-6.337311463045488	0	0	44.33365304856616	-12.71841737801181	0	59.64554802579791	1.041011197206577	-6.337311463045488	0	0	-3.185674205123981	-0.5742650463615386	-3.021645373840244	67.44375870441567	2.126210123159416	23.62671794154693	68.04430369021996	3.728459601515576	0	0	0	-8.793067697231425	0	86.33741148240674	3.728459601515576	0	0
1.83	-0.09102123722334153	-3.136820979138563	-101.7518619589847	0	0.9399999998679526	0	44.33389692811262	-12.71491832155921	0	59.64564970747547	1.04101297188664	-6.335072338679088	0	0	44.33389692811262	-12.71491832155921	0	59.64564970747547	1.04101297188664	-6.335072338679088	0	0	-3.57363425552361	-0.6367696585915023	-2.902265276199764	67.50939908807025	2.86297867484784	24.03737861529175	67.36371806699162	3.727509279575579	0	0	0	-8.794233191949598	0	86.33834491713152	3.727509279575579	0	0
1.84	-0.1567719789701988	-4.074291933604564	-102.1374563525008	0	0.9399999998679526	0	44.33410582142473	-12.7119654598062	0	59.64573777682816	1.041014508986814	-6.333188377594925	0	0	44.33410582142473	-12.7119654598062	0	59.64573777682816	1.041014508986814	-6.333188377594925	0	0	-4.623245820778825	-0.790624878499983	-2.77562735485571	67.76161095978644	3.081271433489039	24.37978583944961	67.13145080787093	3.726691745156121	0	0	0	-8.795239506538271	0	86.33914792510679	3.726691745156121	0	0
1.85	-0.1688145925119931	-4.388473669652994	-102.3153276286567	0	0.9399999998679526	0	44.33473209792687	-12.70313630961899	0	59.64600108215298	1.04101910453167	-6.327566341783454	0	0	44.33473209792687	-12.70313630961899	0	59.64600108215298	1.04101910453167	-6.327566341783454	0	0	-5.26462214531086	-0.8746263270442589	-0.4324501488780253	68.08534122967542	0.5890597537071285	23.54570384221962	67.00970196986219	3.724242340770992	0	0	0	-8.798251921646779	0	86.3415538063982	3.724242340770992	0	0
1.86	-0.2117886550535456	-4.645460639883777	-102.44925318315	0	0.9399999998679526	0	44.33795106992054	-12.67156335525141	0	59.64770262491137	1.041048802055168	-6.308997357771088	0	0	44.33795106992054	-12.67156335525141	0	59.64770262491137	1.041048802055168	-6.308997357771088	0	0	-5.68516915532705	-0.9285063666659086	0.01143913530659928	68.50378216170868	-1.162553434567454	23.04482245261256	66.67784349131698	3.710433374864826	0	0	0	-8.8165232525768	0	86.3551177942952	3.710433374864826	0	0
1.87	-0.2420227736917658	-4.937334756329945	-102.6286526552911	0	0.9399999998679526	0	44.3381229017303	-12.66913002075679	0	59.64777441973319	1.041050055111194	-6.30744681136569	0	0	44.3381229017303	-12.66913002075679	0	59.64777441973319	1.041050055111194	-6.30744681136569	0	0	-6.234092843604616	-1.028488964673451	0.4302916546794786	68.65369665515547	-1.873123365465903	22.35081050389652	66.58548424283028	3.709762283775572	0	0	0	-8.817347622000012	0	86.35577696072515	3.709762283775572	0	0
